<svg width="74" height="14" viewBox="0 0 74 14" fill="none" xmlns="http://www.w3.org/2000/svg">
<path d="M7.49003 1.09L9.08003 4.3C9.1162 4.38147 9.17308 4.45204 9.24502 4.50468C9.31696 4.55732 9.40144 4.59018 9.49003 4.6L13 5.12C13.1017 5.13306 13.1975 5.17477 13.2763 5.24025C13.3551 5.30573 13.4137 5.39229 13.4451 5.48981C13.4766 5.58733 13.4796 5.69178 13.4539 5.79098C13.4283 5.89017 13.3749 5.98001 13.3 6.05L10.77 8.56C10.7055 8.62032 10.657 8.69584 10.6291 8.77967C10.6011 8.8635 10.5946 8.95299 10.61 9.04L11.22 12.57C11.2377 12.6714 11.2265 12.7758 11.1878 12.8712C11.1491 12.9666 11.0844 13.0492 11.001 13.1096C10.9177 13.1701 10.819 13.2059 10.7163 13.213C10.6136 13.2202 10.5109 13.1983 10.42 13.15L7.26003 11.48C7.17912 11.4403 7.09017 11.4196 7.00003 11.4196C6.90989 11.4196 6.82095 11.4403 6.74003 11.48L3.58003 13.15C3.48912 13.1983 3.38647 13.2202 3.28376 13.213C3.18105 13.2059 3.0824 13.1701 2.99905 13.1096C2.91569 13.0492 2.85097 12.9666 2.81225 12.8712C2.77354 12.7758 2.76237 12.6714 2.78003 12.57L3.39003 9C3.40549 8.91299 3.39895 8.8235 3.37101 8.73967C3.34307 8.65584 3.2946 8.58032 3.23003 8.52L0.670033 6.05C0.594296 5.97809 0.541033 5.88577 0.516697 5.78421C0.492361 5.68265 0.497997 5.57622 0.53292 5.47779C0.567844 5.37937 0.630557 5.29319 0.713464 5.22969C0.796371 5.16618 0.895913 5.12808 1.00003 5.12L4.51003 4.6C4.59863 4.59018 4.68311 4.55732 4.75505 4.50468C4.82699 4.45204 4.88387 4.38147 4.92003 4.3L6.51003 1.09C6.55333 0.996504 6.62247 0.917351 6.7093 0.861879C6.79612 0.806407 6.897 0.776932 7.00003 0.776932C7.10306 0.776932 7.20395 0.806407 7.29077 0.861879C7.37759 0.917351 7.44673 0.996504 7.49003 1.09Z" fill="#A0AE00"/>
<path d="M22.9882 1.09L24.5782 4.3C24.6144 4.38147 24.6713 4.45204 24.7432 4.50468C24.8151 4.55732 24.8996 4.59018 24.9882 4.6L28.4982 5.12C28.5998 5.13306 28.6956 5.17477 28.7745 5.24025C28.8533 5.30573 28.9118 5.39229 28.9433 5.48981C28.9747 5.58733 28.9778 5.69178 28.9521 5.79098C28.9264 5.89017 28.873 5.98001 28.7982 6.05L26.2682 8.56C26.2036 8.62032 26.1552 8.69584 26.1272 8.77967C26.0993 8.8635 26.0927 8.95299 26.1082 9.04L26.7182 12.57C26.7359 12.6714 26.7247 12.7758 26.686 12.8712C26.6473 12.9666 26.5825 13.0492 26.4992 13.1096C26.4158 13.1701 26.3172 13.2059 26.2145 13.213C26.1118 13.2202 26.0091 13.1983 25.9182 13.15L22.7582 11.48C22.6773 11.4403 22.5883 11.4196 22.4982 11.4196C22.4081 11.4196 22.3191 11.4403 22.2382 11.48L19.0782 13.15C18.9873 13.1983 18.8846 13.2202 18.7819 13.213C18.6792 13.2059 18.5806 13.1701 18.4972 13.1096C18.4139 13.0492 18.3491 12.9666 18.3104 12.8712C18.2717 12.7758 18.2605 12.6714 18.2782 12.57L18.8882 9C18.9037 8.91299 18.8971 8.8235 18.8692 8.73967C18.8412 8.65584 18.7928 8.58032 18.7282 8.52L16.1682 6.05C16.0925 5.97809 16.0392 5.88577 16.0149 5.78421C15.9905 5.68265 15.9962 5.57622 16.0311 5.47779C16.066 5.37937 16.1287 5.29319 16.2116 5.22969C16.2945 5.16618 16.3941 5.12808 16.4982 5.12L20.0082 4.6C20.0968 4.59018 20.1813 4.55732 20.2532 4.50468C20.3252 4.45204 20.382 4.38147 20.4182 4.3L22.0082 1.09C22.0515 0.996504 22.1206 0.917351 22.2075 0.861879C22.2943 0.806407 22.3952 0.776932 22.4982 0.776932C22.6012 0.776932 22.7021 0.806407 22.7889 0.861879C22.8758 0.917351 22.9449 0.996504 22.9882 1.09Z" fill="#A0AE00"/>
<path d="M37.9882 1.09L39.5782 4.3C39.6144 4.38147 39.6713 4.45204 39.7432 4.50468C39.8151 4.55732 39.8996 4.59018 39.9882 4.6L43.4982 5.12C43.5998 5.13306 43.6956 5.17477 43.7745 5.24025C43.8533 5.30573 43.9118 5.39229 43.9433 5.48981C43.9747 5.58733 43.9778 5.69178 43.9521 5.79098C43.9264 5.89017 43.873 5.98001 43.7982 6.05L41.2682 8.56C41.2036 8.62032 41.1552 8.69584 41.1272 8.77967C41.0993 8.8635 41.0927 8.95299 41.1082 9.04L41.7182 12.57C41.7359 12.6714 41.7247 12.7758 41.686 12.8712C41.6473 12.9666 41.5825 13.0492 41.4992 13.1096C41.4158 13.1701 41.3172 13.2059 41.2145 13.213C41.1118 13.2202 41.0091 13.1983 40.9182 13.15L37.7582 11.48C37.6773 11.4403 37.5883 11.4196 37.4982 11.4196C37.4081 11.4196 37.3191 11.4403 37.2382 11.48L34.0782 13.15C33.9873 13.1983 33.8846 13.2202 33.7819 13.213C33.6792 13.2059 33.5806 13.1701 33.4972 13.1096C33.4139 13.0492 33.3491 12.9666 33.3104 12.8712C33.2717 12.7758 33.2605 12.6714 33.2782 12.57L33.8882 9C33.9037 8.91299 33.8971 8.8235 33.8692 8.73967C33.8412 8.65584 33.7928 8.58032 33.7282 8.52L31.1682 6.05C31.0925 5.97809 31.0392 5.88577 31.0149 5.78421C30.9905 5.68265 30.9962 5.57622 31.0311 5.47779C31.066 5.37937 31.1287 5.29319 31.2116 5.22969C31.2945 5.16618 31.3941 5.12808 31.4982 5.12L35.0082 4.6C35.0968 4.59018 35.1813 4.55732 35.2532 4.50468C35.3252 4.45204 35.382 4.38147 35.4182 4.3L37.0082 1.09C37.0515 0.996504 37.1206 0.917351 37.2075 0.861879C37.2943 0.806407 37.3952 0.776932 37.4982 0.776932C37.6012 0.776932 37.7021 0.806407 37.7889 0.861879C37.8758 0.917351 37.9449 0.996504 37.9882 1.09Z" fill="#A0AE00"/>
<path d="M52.9882 1.09L54.5782 4.3C54.6144 4.38147 54.6713 4.45204 54.7432 4.50468C54.8151 4.55732 54.8996 4.59018 54.9882 4.6L58.4982 5.12C58.5998 5.13306 58.6956 5.17477 58.7745 5.24025C58.8533 5.30573 58.9118 5.39229 58.9433 5.48981C58.9747 5.58733 58.9778 5.69178 58.9521 5.79098C58.9264 5.89017 58.873 5.98001 58.7982 6.05L56.2682 8.56C56.2036 8.62032 56.1552 8.69584 56.1272 8.77967C56.0993 8.8635 56.0927 8.95299 56.1082 9.04L56.7182 12.57C56.7359 12.6714 56.7247 12.7758 56.686 12.8712C56.6473 12.9666 56.5825 13.0492 56.4992 13.1096C56.4158 13.1701 56.3172 13.2059 56.2145 13.213C56.1118 13.2202 56.0091 13.1983 55.9182 13.15L52.7582 11.48C52.6773 11.4403 52.5883 11.4196 52.4982 11.4196C52.4081 11.4196 52.3191 11.4403 52.2382 11.48L49.0782 13.15C48.9873 13.1983 48.8846 13.2202 48.7819 13.213C48.6792 13.2059 48.5806 13.1701 48.4972 13.1096C48.4139 13.0492 48.3491 12.9666 48.3104 12.8712C48.2717 12.7758 48.2605 12.6714 48.2782 12.57L48.8882 9C48.9037 8.91299 48.8971 8.8235 48.8692 8.73967C48.8412 8.65584 48.7928 8.58032 48.7282 8.52L46.1682 6.05C46.0925 5.97809 46.0392 5.88577 46.0149 5.78421C45.9905 5.68265 45.9962 5.57622 46.0311 5.47779C46.066 5.37937 46.1287 5.29319 46.2116 5.22969C46.2945 5.16618 46.3941 5.12808 46.4982 5.12L50.0082 4.6C50.0968 4.59018 50.1813 4.55732 50.2532 4.50468C50.3252 4.45204 50.382 4.38147 50.4182 4.3L52.0082 1.09C52.0515 0.996504 52.1206 0.917351 52.2075 0.861879C52.2943 0.806407 52.3952 0.776932 52.4982 0.776932C52.6012 0.776932 52.7021 0.806407 52.7889 0.861879C52.8758 0.917351 52.9449 0.996504 52.9882 1.09Z" fill="#A0AE00"/>
<path d="M67.9882 1.09L69.5782 4.3C69.6144 4.38147 69.6713 4.45204 69.7432 4.50468C69.8151 4.55732 69.8996 4.59018 69.9882 4.6L73.4982 5.12C73.5998 5.13306 73.6956 5.17477 73.7745 5.24025C73.8533 5.30573 73.9118 5.39229 73.9433 5.48981C73.9747 5.58733 73.9778 5.69178 73.9521 5.79098C73.9264 5.89017 73.873 5.98001 73.7982 6.05L71.2682 8.56C71.2036 8.62032 71.1552 8.69584 71.1272 8.77967C71.0993 8.8635 71.0927 8.95299 71.1082 9.04L71.7182 12.57C71.7359 12.6714 71.7247 12.7758 71.686 12.8712C71.6473 12.9666 71.5825 13.0492 71.4992 13.1096C71.4158 13.1701 71.3172 13.2059 71.2145 13.213C71.1118 13.2202 71.0091 13.1983 70.9182 13.15L67.7582 11.48C67.6773 11.4403 67.5883 11.4196 67.4982 11.4196C67.4081 11.4196 67.3191 11.4403 67.2382 11.48L64.0782 13.15C63.9873 13.1983 63.8846 13.2202 63.7819 13.213C63.6792 13.2059 63.5806 13.1701 63.4972 13.1096C63.4139 13.0492 63.3491 12.9666 63.3104 12.8712C63.2717 12.7758 63.2605 12.6714 63.2782 12.57L63.8882 9C63.9037 8.91299 63.8971 8.8235 63.8692 8.73967C63.8412 8.65584 63.7928 8.58032 63.7282 8.52L61.1682 6.05C61.0925 5.97809 61.0392 5.88577 61.0149 5.78421C60.9905 5.68265 60.9962 5.57622 61.0311 5.47779C61.066 5.37937 61.1287 5.29319 61.2116 5.22969C61.2945 5.16618 61.3941 5.12808 61.4982 5.12L65.0082 4.6C65.0968 4.59018 65.1813 4.55732 65.2532 4.50468C65.3252 4.45204 65.382 4.38147 65.4182 4.3L67.0082 1.09C67.0515 0.996504 67.1206 0.917351 67.2075 0.861879C67.2943 0.806407 67.3952 0.776932 67.4982 0.776932C67.6012 0.776932 67.7021 0.806407 67.7889 0.861879C67.8758 0.917351 67.9449 0.996504 67.9882 1.09Z" fill="#A0AE00"/>
</svg>
