<svg width="400" height="108" viewBox="0 0 400 108" fill="none" xmlns="http://www.w3.org/2000/svg">
<path d="M26.4 3.39999C27.9333 1.79999 29.8 0.999995 32 0.999995C34.2 0.999995 36.0667 1.79999 37.6 3.39999C39.2 4.93333 40 6.8 40 9C40 11.2 39.2 13.0667 37.6 14.6C36.0667 16.1333 34.2 16.9 32 16.9C29.8 16.9 27.9333 16.1333 26.4 14.6C24.8667 13.0667 24.1 11.2 24.1 9C24.1 6.8 24.8667 4.93333 26.4 3.39999ZM12.5 107.6C9.36667 107.6 6.6 106.6 4.2 104.6C1.73333 102.667 0.499999 99.3 0.499999 94.5C0.499999 84.9 6.3 76.3333 17.9 68.8C18.3667 64.8 19.7667 52.7667 22.1 32.7C24.1 30.2333 27.2333 29 31.5 29C33.9 29 35.5333 29.2333 36.4 29.7L28.6 90.2C27.9333 96 26.3 100.333 23.7 103.2C21.1667 106.133 17.4333 107.6 12.5 107.6ZM6.9 93.5C6.9 95.3 7.26667 96.6667 8 97.6C8.73333 98.6 9.66667 99.1 10.8 99.1C12.9333 99.1 14.3 96.9 14.9 92.5L17 76.5C10.2667 81.8333 6.9 87.5 6.9 93.5ZM70.4688 77.6C60.1354 77.6 52.5354 74.9667 47.6688 69.7C42.8688 64.4333 40.4688 57.5 40.4688 48.9C40.4688 40.2333 41.9354 32.3667 44.8688 25.3C47.8688 18.1667 52.3021 12.3333 58.1688 7.8C64.0354 3.2 70.3688 0.899996 77.1688 0.899996C84.0354 0.899996 89.4021 2.56666 93.2688 5.9C97.2021 9.16666 99.1688 13.6 99.1688 19.2C99.1688 24.7333 97.4354 29.3333 93.9687 33C90.5687 36.6667 86.5688 38.5 81.9688 38.5C77.3688 38.5 73.8021 37.5 71.2688 35.5C68.7354 33.4333 67.4688 31.2667 67.4688 29C67.4688 26.6667 68.3688 24.8667 70.1688 23.6C72.0354 22.2667 74.7354 21.6 78.2688 21.6C77.4021 22.4667 76.9688 23.6333 76.9688 25.1C76.9688 26.5 77.4021 27.7333 78.2688 28.8C79.1354 29.8667 80.4688 30.4 82.2688 30.4C84.0688 30.4 85.8688 29.4667 87.6688 27.6C89.4688 25.6667 90.3688 23.1333 90.3688 20C90.3688 16.8667 89.4021 14.3667 87.4688 12.5C85.6021 10.6333 82.9354 9.7 79.4688 9.7C74.9354 9.7 70.8021 11.5333 67.0688 15.2C63.4021 18.8667 60.6021 23.5333 58.6688 29.2C56.7354 34.8667 55.7688 40.8333 55.7688 47.1C55.7688 52.5 56.9354 57.2667 59.2688 61.4C60.4688 63.5333 62.2354 65.2333 64.5688 66.5C66.9688 67.7667 69.7688 68.4 72.9688 68.4C78.4354 68.4 83.7021 66.6667 88.7688 63.2C93.8354 59.6667 98.1021 55.1333 101.569 49.6L104.969 55.7C101.035 62.1 96.1021 67.3667 90.1688 71.5C84.2354 75.5667 77.6688 77.6 70.4688 77.6ZM111.688 77.7C107.622 77.7 104.422 76.5667 102.088 74.3C99.7549 71.9667 98.5883 68.8 98.5883 64.8C98.5883 63.7333 100.388 47.9 103.988 17.3C104.922 9.43333 107.422 4.46666 111.488 2.39999C113.355 1.4 115.588 0.899996 118.188 0.899996C126.988 0.899996 131.388 4.96666 131.388 13.1C131.388 13.7667 131.355 14.4667 131.288 15.2C130.622 24.1333 125.022 33.2333 114.488 42.5C114.155 45.7667 113.788 48.9333 113.388 52C112.588 58.8667 112.188 62.6667 112.188 63.4C112.188 66.8667 113.688 68.6 116.688 68.6C119.955 68.6 122.988 66.7333 125.788 63C128.655 59.2 130.855 54.3667 132.388 48.5C132.988 48.7 133.822 49.2667 134.888 50.2C135.955 51.0667 136.688 51.8333 137.088 52.5C136.022 58.0333 133.622 63.3333 129.888 68.4C128.022 71 125.655 73.1333 122.788 74.8C119.522 76.7333 115.822 77.7 111.688 77.7ZM115.588 32.5C121.722 25.7667 124.788 19.7333 124.788 14.4C124.788 11.2 123.588 9.6 121.188 9.6C119.655 9.73333 118.622 10.7333 118.088 12.6C117.622 14.4667 117.155 17.5 116.688 21.7C116.288 25.9 116.022 28.5 115.888 29.5L115.588 32.5ZM155.055 28.9C161.188 28.9 166.288 30.8667 170.355 34.8C174.488 38.7333 176.555 43.5333 176.555 49.2C176.555 57.8 174.021 64.7 168.955 69.9C163.955 75.0333 157.888 77.6 150.755 77.6C143.621 77.6 137.955 75.5667 133.755 71.5C129.621 67.4333 127.555 62.4 127.555 56.4C127.555 48 130.121 41.3333 135.255 36.4C140.455 31.4 147.055 28.9 155.055 28.9ZM153.055 37C149.921 37 147.288 38.8 145.155 42.4C143.021 46 141.855 50.5333 141.655 56C141.655 59.8667 142.421 63.0667 143.955 65.6C145.555 68.1333 147.955 69.4 151.155 69.4C154.355 69.4 157.021 67.6333 159.155 64.1C161.355 60.5667 162.455 56.5333 162.455 52C162.455 47.4667 161.688 43.8667 160.155 41.2C158.621 38.4 156.255 37 153.055 37ZM203.408 7.4C203.408 7.79999 202.508 14.9667 200.708 28.9H215.408V36.6H199.708L199.408 39.1C207.208 45.6333 211.108 52.7667 211.108 60.5C211.108 66.5667 209.541 70.9333 206.408 73.6C203.341 76.2667 199.641 77.6 195.308 77.6C190.974 77.6 187.808 76.4667 185.808 74.2C183.808 71.8667 182.808 69.0667 182.808 65.8C182.808 65.0667 182.874 64.2667 183.008 63.4L186.108 36.8L185.708 36.6H177.608C177.541 35.9333 177.508 34.8667 177.508 33.4C177.508 31.8667 177.808 30.3667 178.408 28.9H187.008L190.208 1.7C191.608 1.16666 193.474 0.899996 195.808 0.899996C200.874 0.899996 203.408 3.06666 203.408 7.4ZM204.408 60.4C204.408 55.8 202.408 51.2667 198.408 46.8C197.208 56.7333 196.608 62.4667 196.608 64C196.608 67 197.574 68.5 199.508 68.5C200.908 68.5 202.074 67.8667 203.008 66.6C203.941 65.2667 204.408 63.2 204.408 60.4ZM242.483 65.6L244.883 43.5C244.883 41.7 244.416 40.2 243.483 39C242.549 37.8 241.049 37.2 238.983 37.2C236.916 37.2 235.149 38.0333 233.683 39.7C232.283 41.3 231.249 43.4333 230.583 46.1C230.116 49.9 229.416 55.4667 228.483 62.8C227.549 70.0667 226.949 74.8 226.683 77H213.383C218.183 36.1333 221.083 11.0333 222.083 1.7C223.483 1.16666 225.383 0.899996 227.783 0.899996C232.983 0.899996 235.583 2.43333 235.583 5.5V6.09999C234.449 16.5667 233.249 25.7667 231.983 33.7C235.516 30.5 239.516 28.9 243.983 28.9C248.449 28.9 251.983 30.0333 254.583 32.3C257.183 34.5667 258.483 37.4333 258.483 40.9C258.483 41.8333 258.283 43.5667 257.883 46.1C256.349 56.1 255.583 61.9667 255.583 63.7C255.583 66.8333 256.616 68.4 258.683 68.4C260.416 68.4 262.249 67.2667 264.183 65C266.183 62.6667 267.783 59.1 268.983 54.3C271.249 56.7 272.616 58.6 273.083 60C269.616 71.6 263.483 77.4 254.683 77.4C250.549 77.4 247.483 76.1333 245.483 73.6C243.483 71.0667 242.483 68.4 242.483 65.6ZM272.49 3.39999C274.023 1.79999 275.89 0.999995 278.09 0.999995C280.29 0.999995 282.157 1.79999 283.69 3.39999C285.29 4.93333 286.09 6.8 286.09 9C286.09 11.2 285.29 13.0667 283.69 14.6C282.157 16.1333 280.29 16.9 278.09 16.9C275.89 16.9 274.023 16.1333 272.49 14.6C270.957 13.0667 270.19 11.2 270.19 9C270.19 6.8 270.957 4.93333 272.49 3.39999ZM268.39 32.7C269.057 31.5 270.323 30.6 272.19 30C274.057 29.3333 275.89 29 277.69 29C279.557 29 281.19 29.2333 282.59 29.7C279.99 49.7667 278.69 59.9 278.69 60.1C278.357 61.4333 278.19 62.5667 278.19 63.5C278.19 64.3667 278.257 65.1333 278.39 65.8C278.657 67.5333 279.857 68.4 281.99 68.4C284.19 68.4 286.19 67 287.99 64.2C289.857 61.3333 291.257 58.1 292.19 54.5C292.657 54.7667 293.39 55.5667 294.39 56.9C295.39 58.2333 295.99 59.2333 296.19 59.9C294.857 65.2333 292.59 69.5333 289.39 72.8C286.19 76.0667 282.357 77.7 277.89 77.7C273.423 77.7 270.09 76.6 267.89 74.4C265.757 72.2 264.69 69.3667 264.69 65.9C264.69 65.1667 264.723 64.4 264.79 63.6L268.39 32.7ZM316.534 65.8L318.934 43.5C318.934 41.7 318.468 40.2 317.534 39C316.601 37.8 315.034 37.2 312.834 37.2C310.701 37.2 308.868 38.1667 307.334 40.1C305.868 41.9667 304.934 44.3333 304.534 47.2C302.134 65.4667 300.868 75.4 300.734 77H287.234L292.734 29.9C295.534 29.1667 297.668 28.8 299.134 28.8C303.601 28.8 305.934 30.4333 306.134 33.7C309.401 30.5 313.301 28.9 317.834 28.9C322.434 28.9 326.034 30.0333 328.634 32.3C331.234 34.5667 332.534 37.4333 332.534 40.9C332.534 41.8333 332.334 43.6 331.934 46.2C330.401 56.3333 329.634 62.2333 329.634 63.9C329.634 66.9667 330.668 68.5 332.734 68.5C337.268 68.5 340.701 63.7667 343.034 54.3C345.301 56.7 346.668 58.6 347.134 60C343.601 71.7333 337.468 77.6 328.734 77.6C324.601 77.6 321.534 76.3333 319.534 73.8C317.534 71.2667 316.534 68.6 316.534 65.8ZM366.79 28.9C370.457 28.9 373.823 29.5 376.89 30.7C378.957 29.4333 381.123 28.8 383.39 28.8C385.657 28.8 387.457 29.1 388.79 29.7L385.19 57.9C390.123 54.1 393.857 50.6333 396.39 47.5L399.29 53.6C395.49 57.6 390.423 61.8667 384.09 66.4L381.39 87.3C380.657 93.5667 378.59 98.3667 375.19 101.7C371.857 105.1 367.523 106.8 362.19 106.8C359.123 106.8 356.123 105.8 353.19 103.8C350.123 101.667 348.59 98.2333 348.59 93.5C348.59 87.7 351.357 82.4 356.89 77.6C352.157 77.2667 348.09 75.3 344.69 71.7C341.29 68.1 339.59 63.4 339.59 57.6C339.59 48.8667 342.157 41.9 347.29 36.7C352.423 31.5 358.923 28.9 366.79 28.9ZM368.29 36.7C364.023 36.7 360.623 38.3333 358.09 41.6C355.623 44.8 354.157 49.6 353.69 56C353.623 56.6 353.59 57.1667 353.59 57.7C353.59 60.9667 354.357 63.5667 355.89 65.5C357.49 67.4333 359.523 68.4 361.99 68.4C366.19 68.4 369.357 65.4667 371.49 59.6L373.99 37.9C371.923 37.1 370.023 36.7 368.29 36.7ZM356.29 92C356.29 93.8 356.79 95.2 357.79 96.2C358.857 97.2667 360.057 97.8 361.39 97.8C365.123 97.8 367.29 95.4333 367.89 90.7L369.59 75.7C360.723 80.9667 356.29 86.4 356.29 92Z" fill="white"/>
</svg>
