<svg width="44" height="44" viewBox="0 0 44 44" fill="none" xmlns="http://www.w3.org/2000/svg">
<path d="M43.6163 8.73187C43.4633 8.54883 43.272 8.40161 43.0559 8.3006C42.8398 8.19959 42.6042 8.14726 42.3657 8.1473H9.50783L8.51183 2.67639C8.37541 1.92548 7.97978 1.24627 7.3939 0.757173C6.80803 0.268074 6.06908 0.000110303 5.30589 0H1.62945C1.19729 0 0.782835 0.171675 0.477254 0.477258C0.171673 0.782841 0 1.1973 0 1.62946C0 2.06162 0.171673 2.47608 0.477254 2.78166C0.782835 3.08725 1.19729 3.25892 1.62945 3.25892H5.29571L10.5018 31.8335C10.6552 32.681 11.0297 33.4729 11.5874 34.129C10.8176 34.8481 10.262 35.7663 9.98212 36.7818C9.70228 37.7974 9.70917 38.8706 10.002 39.8824C10.2949 40.8943 10.8623 41.8053 11.6412 42.5144C12.4202 43.2235 13.3804 43.703 14.4152 43.8997C15.4501 44.0964 16.5192 44.0026 17.504 43.6288C18.4889 43.255 19.3509 42.6158 19.9946 41.7819C20.6383 40.9481 21.0385 39.9523 21.1508 38.9049C21.2631 37.8575 21.0832 36.7995 20.6309 35.8481H29.8821C29.5175 36.6113 29.3289 37.4465 29.3301 38.2923C29.3301 39.4203 29.6646 40.5229 30.2912 41.4608C30.9179 42.3987 31.8086 43.1296 32.8507 43.5613C33.8928 43.9929 35.0395 44.1059 36.1458 43.8858C37.252 43.6658 38.2682 43.1226 39.0658 42.325C39.8634 41.5274 40.4066 40.5112 40.6266 39.4049C40.8467 38.2986 40.7337 37.1519 40.3021 36.1098C39.8704 35.0677 39.1395 34.177 38.2016 33.5503C37.2637 32.9237 36.1611 32.5892 35.0331 32.5892H15.3107C14.9291 32.5891 14.5596 32.4552 14.2667 32.2106C13.9738 31.9661 13.7759 31.6265 13.7077 31.251L13.0621 27.7008H36.6891C37.8339 27.7007 38.9423 27.2987 39.8211 26.5651C40.6999 25.8314 41.2934 24.8126 41.498 23.6862L43.9747 10.068C44.0167 9.83265 44.0063 9.59093 43.9443 9.36001C43.8824 9.1291 43.7704 8.91465 43.6163 8.73187ZM17.9239 38.2923C17.9239 38.7757 17.7806 39.2483 17.512 39.6502C17.2434 40.0522 16.8617 40.3654 16.4151 40.5504C15.9685 40.7354 15.4771 40.7838 15.0029 40.6895C14.5288 40.5952 14.0933 40.3624 13.7515 40.0206C13.4096 39.6788 13.1769 39.2433 13.0826 38.7691C12.9882 38.295 13.0366 37.8036 13.2216 37.357C13.4066 36.9103 13.7199 36.5286 14.1219 36.26C14.5238 35.9915 14.9964 35.8481 15.4798 35.8481C16.128 35.8481 16.7497 36.1056 17.2081 36.564C17.6664 37.0224 17.9239 37.6441 17.9239 38.2923ZM37.4773 38.2923C37.4773 38.7757 37.334 39.2483 37.0654 39.6502C36.7968 40.0522 36.4151 40.3654 35.9685 40.5504C35.5219 40.7354 35.0304 40.7838 34.5563 40.6895C34.0822 40.5952 33.6467 40.3624 33.3049 40.0206C32.963 39.6788 32.7302 39.2433 32.6359 38.7691C32.5416 38.295 32.59 37.8036 32.775 37.357C32.96 36.9103 33.2733 36.5286 33.6752 36.26C34.0772 35.9915 34.5497 35.8481 35.0331 35.8481C35.6814 35.8481 36.3031 36.1056 36.7614 36.564C37.2198 37.0224 37.4773 37.6441 37.4773 38.2923ZM38.292 23.1037C38.2236 23.4802 38.0249 23.8206 37.7307 24.0653C37.4365 24.3099 37.0656 24.4433 36.683 24.4419H12.4694L10.1005 11.4062H40.4124L38.292 23.1037Z" fill="black"/>
</svg>
